PathFileType	4	(X/Y/Z)	D:/ViconDB/Teaching_2017/Workshops/171025_A1_Demo01/Demo/171025_Guy_ROM_body_01_unlab.trc
DataRate	CameraRate	NumFrames	NumMarkers	Units	OrigDataRate	OrigDataStartFrame	OrigNumFrames
120.000000	120.000000	4	1	mm	120.000000	91	120
Frame#	Time	Unlabeled_Markers			
		X0	Y0	Z0	
91	0.758333				163.565994	83.708786	96.295959	-36.302517	1843.337646	-14.066535	-178.027115	79.097137	83.133987	129.197403	68.244461	-191.301987	126.838890	85.680176	51.681934	-204.408585	76.929474	27.147871	237.168427	1221.776611	-67.706268	-124.405350	76.113220	42.909561	-116.925217	75.711487	-194.292374	142.572418	1501.912231	-110.593452	179.437378	124.418556	-134.978058	208.040054	79.401299	42.505672	-7.463449	1553.833252	-99.071175	-179.067734	127.310005	-146.530151	-304.779297	865.105225	43.276188	196.031845	332.972717	-93.834801	263.358246	926.615540	34.701340	262.942078	1168.583496	-8.824429	-169.563065	1501.422119	-108.385643	65.142311	1734.883911	-40.610512	-239.070496	1207.648682	-106.383865	-198.785385	413.071320	-93.554306	237.783142	1356.467529	-33.059044	-91.072624	1717.274536	-72.773254	-301.065216	1047.722412	-12.782750	117.776733	1171.978638	-96.563881	-284.003540	919.075012	-12.253271	-292.465332	1167.038574	-52.264275	-185.788773	565.931885	-20.998346	-102.369568	1788.505005	57.355625	182.974213	662.713196	-16.442635	276.172577	871.968445	92.073112	256.721375	887.268250	118.370621	175.263626	549.502563	-14.065537	-1.058393	1375.452637	-129.284927	-117.266754	1157.899536	-112.740654	-257.702271	1361.929810	-50.260418	-10.771229	1483.964844	76.087242	-293.920471	871.308105	82.819633	-160.979141	650.531799	42.147526	-156.590530	1508.524170	9.678319	260.561584	1054.545532	51.699787	-202.381042	1012.022217	-61.408043	24.803905	1793.890991	76.790092	184.649811	981.662598	-20.466856	-136.365570	753.202698	66.233185	-141.424698	1093.254150	89.733818	113.771896	629.934448	49.770645	126.717552	1506.772583	29.133375	-4.033503	1347.302979	118.286011	-258.055176	944.244995	61.996906	210.522507	933.881836	100.243492	118.374077	1090.004150	89.228134																																																																																																																																																																																																																																																																																																																																																																																																																																																																																																																																																																																																															
92	0.766667				163.509903	83.705437	96.300980	-36.410568	1843.324707	-14.117838	-178.384735	79.255974	82.897827	129.132172	68.222801	-191.291580	126.788933	85.663452	51.651146	-204.448349	76.905243	27.128428	237.101364	1221.805298	-67.766594	-124.454964	76.087105	42.886139	-117.024963	75.677948	-194.288666	142.543732	1501.943115	-110.622856	179.409714	124.444336	-134.972839	208.007416	79.400558	42.497292	-7.513481	1553.821045	-99.104523	-179.145706	127.276741	-146.486008	-304.932648	865.075012	43.094547	196.027847	333.047150	-93.858559	263.326721	926.659607	34.617950	262.892334	1168.615967	-8.860377	-169.614380	1501.395386	-108.427299	65.064606	1734.951050	-40.574791	-239.136429	1207.628906	-106.445282	-198.836975	413.052460	-93.576790	237.756256	1356.510254	-33.076565	-91.171074	1717.240967	-72.778641	-301.162781	1047.697021	-12.876394	117.735001	1171.999146	-96.579048	-284.156708	919.031860	-12.373374	-292.555511	1167.033691	-52.347866	-185.863281	565.874451	-21.054947	-102.494614	1788.465820	57.259586	182.983124	662.785400	-16.429070	276.091522	872.020203	91.987511	257.227234	887.860718	118.597397	175.232269	549.573792	-14.114782	-1.113064	1375.470215	-129.286346	-117.283234	1157.925537	-112.841431	-257.824432	1361.763916	-50.416904	-10.530746	1484.245850	76.176735	-294.070923	871.249634	82.666679	-161.056763	650.495056	42.034710	-156.714310	1508.457642	9.564257	260.514648	1054.680664	51.701241	-202.421844	1011.985657	-61.423763	24.753397	1793.908325	76.767975	184.629288	981.729797	-20.460596	-136.405746	753.211304	66.178886	-141.476471	1093.213867	89.650589	113.687683	629.923462	49.699940	126.353218	1506.468872	28.915554	-4.174247	1347.240112	118.162651	-257.780945	943.823242	61.711063	210.400711	933.889771	100.130737	118.324287	1090.036377	89.205200																																																																																																																																																																																																																																																																																																																																																																																																																																																																																																																																																																																																															
93	0.775000				163.476715	83.710159	96.284935	-36.447529	1843.336182	-14.136105	-178.094955	79.082634	83.139221	129.126678	68.207207	-191.249435	126.773643	85.672310	51.667370	-204.486862	76.870560	27.104544	237.093369	1221.831177	-67.800171	-124.487000	76.060272	42.868137	-117.026337	75.678352	-194.286316	142.568497	1502.012573	-110.646545	179.420105	124.470604	-134.980530	208.002075	79.421860	42.513321	-7.564011	1553.804688	-99.153618	-179.203110	127.260315	-146.490692	-305.075470	865.024170	42.925850	196.021973	333.084015	-93.895042	263.230896	926.671021	34.538990	262.876648	1168.651367	-8.890046	-169.641968	1501.375000	-108.483307	65.023087	1734.985718	-40.548088	-239.201218	1207.639038	-106.511368	-198.849442	413.056671	-93.604279	237.749237	1356.557983	-33.096619	-91.206505	1717.237549	-72.832428	-301.250183	1047.681396	-13.001927	117.742973	1172.015625	-96.588028	-284.317169	919.002747	-12.518272	-292.608185	1167.032104	-52.428032	-185.834396	565.823120	-21.132076	-102.559662	1788.404541	57.152977	182.986801	662.835754	-16.436127	276.054840	872.037476	91.888359	256.530518	887.234131	118.163239	175.234650	549.635742	-14.123388	-1.090015	1375.525269	-129.324524	-117.305374	1157.937134	-112.901794	-258.015320	1361.537354	-50.620724	-10.845558	1483.967285	75.974869	-294.172302	871.160095	82.481987	-161.098099	650.478027	41.948402	-156.774796	1508.400024	9.425619	260.497192	1054.718506	51.658432	-202.437698	1011.974121	-61.442520	24.741390	1793.944214	76.771263	184.625412	981.761292	-20.458231	-136.436035	753.207458	66.127815	-141.484924	1093.159912	89.546112	113.648117	629.954590	49.634922	126.280655	1506.441772	28.858780	-4.252502	1347.209961	118.072037	-257.834930	943.705811	61.553253	209.666885	933.186951	99.515808	118.319862	1090.050415	89.179039																																																																																																																																																																																																																																																																																																																																																																																																																																																																																																																																																																																																															
94	0.783333				163.480957	83.734322	96.289101	-36.473965	1843.362427	-14.154902	-178.085373	79.121933	83.188828	129.100433	68.221909	-191.248337	126.766617	85.668770	51.666306	-204.481674	76.869125	27.099302	237.063782	1221.864990	-67.825951	-124.503883	76.049377	42.859905	-116.511009	75.868141	-194.637939	142.577148	1502.066772	-110.694725	179.447739	124.541237	-134.939590	207.994705	79.447128	42.528252	-7.600294	1553.844971	-99.189651	-179.232239	127.278786	-146.468185	-305.198029	864.988037	42.759621	196.041321	333.113342	-93.923668	263.226990	926.714905	34.498573	262.867462	1168.691772	-8.895826	-169.666672	1501.416016	-108.561913	64.983589	1735.026245	-40.535316	-239.247025	1207.659302	-106.585991	-198.864777	413.051361	-93.627678	237.721634	1356.582886	-33.111900	-91.233337	1717.255005	-72.902054	-301.281250	1047.654297	-13.115531	117.723824	1172.081299	-96.607437	-284.421906	919.023621	-12.618636	-292.669037	1167.047607	-52.523769	-185.826096	565.821960	-21.169991	-102.611992	1788.409302	57.113785	183.002258	662.891113	-16.445034	276.018341	872.067505	91.841705	257.075928	887.856812	118.436287	175.232574	549.685486	-14.164408	-1.113575	1375.560303	-129.331268	-117.320961	1158.024292	-113.021507	-258.032013	1361.505371	-50.705986	-10.942599	1483.908081	75.868866	-294.241425	871.080383	82.292336	-161.090576	650.461426	41.885311	-156.787445	1508.362793	9.339556	260.411591	1054.728149	51.617203	-202.473206	1012.040771	-61.478676	24.680176	1793.959595	76.739090	184.610458	981.820496	-20.454939	-136.415665	753.208252	66.079285	-141.485168	1093.120972	89.459709	113.640984	629.936707	49.578327	126.324486	1506.483032	28.858727	-4.290066	1347.179077	117.985687	-258.442902	944.061157	61.507473	209.377670	932.993408	99.207008	118.340637	1090.079102	89.197884																																																																																																																																																																																																																																																																																																																																																																																																																																																																																																																																																																																																															
